<svg width="18" height="22" viewBox="0 0 18 22" fill="none" xmlns="http://www.w3.org/2000/svg">
<path d="M5.85359 12.9798C5.65833 12.7845 5.34175 12.7845 5.14649 12.9798C4.95122 13.175 4.95122 13.4916 5.14649 13.6869L5.85359 12.9798ZM7.83337 15.6667L7.47982 16.0202C7.67508 16.2155 7.99167 16.2155 8.18693 16.0202L7.83337 15.6667ZM12.8536 11.3536C13.0489 11.1583 13.0489 10.8417 12.8536 10.6464C12.6583 10.4512 12.3417 10.4512 12.1465 10.6464L12.8536 11.3536ZM16.6667 5.16667V19.1667H17.6667V5.16667H16.6667ZM14.8334 21H3.16671V22H14.8334V21ZM1.33337 19.1667V5.16667H0.333374V19.1667H1.33337ZM3.16671 3.33333H5.50004V2.33333H3.16671V3.33333ZM12.5 3.33333H14.8334V2.33333H12.5V3.33333ZM3.16671 21C2.15419 21 1.33337 20.1792 1.33337 19.1667H0.333374C0.333374 20.7315 1.6019 22 3.16671 22V21ZM16.6667 19.1667C16.6667 20.1792 15.8459 21 14.8334 21V22C16.3982 22 17.6667 20.7315 17.6667 19.1667H16.6667ZM17.6667 5.16667C17.6667 3.60186 16.3982 2.33333 14.8334 2.33333V3.33333C15.8459 3.33333 16.6667 4.15414 16.6667 5.16667H17.6667ZM1.33337 5.16667C1.33337 4.15414 2.15419 3.33333 3.16671 3.33333V2.33333C1.6019 2.33333 0.333374 3.60186 0.333374 5.16667H1.33337ZM5.14649 13.6869L7.47982 16.0202L8.18693 15.3131L5.85359 12.9798L5.14649 13.6869ZM8.18693 16.0202L12.8536 11.3536L12.1465 10.6464L7.47982 15.3131L8.18693 16.0202ZM7.83337 1H10.1667V0H7.83337V1ZM10.1667 4.66667H7.83337V5.66667H10.1667V4.66667ZM7.83337 4.66667C6.82085 4.66667 6.00004 3.84586 6.00004 2.83333H5.00004C5.00004 4.39814 6.26857 5.66667 7.83337 5.66667V4.66667ZM12 2.83333C12 3.84586 11.1792 4.66667 10.1667 4.66667V5.66667C11.7315 5.66667 13 4.39814 13 2.83333H12ZM10.1667 1C11.1792 1 12 1.82081 12 2.83333H13C13 1.26853 11.7315 0 10.1667 0V1ZM7.83337 0C6.26857 0 5.00004 1.26853 5.00004 2.83333H6.00004C6.00004 1.82081 6.82085 1 7.83337 1V0Z" fill="#111827"/>
</svg>
