<svg width="23" height="22" viewBox="0 0 23 22" fill="none" xmlns="http://www.w3.org/2000/svg">
<path d="M14.1666 8.66667H19.7246C21.4591 8.66667 22.5873 10.4921 21.8116 12.0435L17.7282 20.2102C17.333 21.0007 16.525 21.5 15.6412 21.5H10.9539C10.7631 21.5 10.5731 21.4766 10.388 21.4303L5.99998 20.3333M14.1666 8.66667V2.83333C14.1666 1.54467 13.122 0.5 11.8333 0.5H11.7219C11.1391 0.5 10.6666 0.972465 10.6666 1.55528C10.6666 2.38864 10.42 3.20334 9.95771 3.89674L5.99998 9.83333V20.3333M14.1666 8.66667H11.8333M5.99998 20.3333H3.66665C2.37798 20.3333 1.33331 19.2887 1.33331 18V11C1.33331 9.71134 2.37798 8.66667 3.66665 8.66667H6.58331" stroke="#111827" stroke-linecap="round" stroke-linejoin="round"/>
</svg>
