<svg width="18" height="22" viewBox="0 0 18 22" fill="none" xmlns="http://www.w3.org/2000/svg">
<path d="M5.33335 2.83333H3.00002C1.71136 2.83333 0.666687 3.878 0.666687 5.16667V19.1667C0.666687 20.4553 1.71136 21.5 3.00002 21.5H14.6667C15.9554 21.5 17 20.4553 17 19.1667V5.16667C17 3.878 15.9554 2.83333 14.6667 2.83333H12.3334M5.33335 2.83333C5.33335 4.122 6.37802 5.16667 7.66669 5.16667H10C11.2887 5.16667 12.3334 4.122 12.3334 2.83333M5.33335 2.83333C5.33335 1.54467 6.37802 0.5 7.66669 0.5H10C11.2887 0.5 12.3334 1.54467 12.3334 2.83333M8.83335 11H12.3334M8.83335 15.6667H12.3334M5.33335 11H5.34502M5.33335 15.6667H5.34502" stroke="#111827" stroke-linecap="round"/>
</svg>
