<svg width="21" height="22" viewBox="0 0 21 22" fill="none" xmlns="http://www.w3.org/2000/svg">
<path d="M5.66667 2.83333H3.33333C2.04467 2.83333 1 3.878 1 5.16667V19.1667C1 20.4553 2.04467 21.5 3.33333 21.5H15C16.2887 21.5 17.3333 20.4553 17.3333 19.1667V18M5.66667 2.83333C5.66667 4.122 6.71134 5.16667 8 5.16667H10.3333C11.622 5.16667 12.6667 4.122 12.6667 2.83333M5.66667 2.83333C5.66667 1.54467 6.71134 0.5 8 0.5H10.3333C11.622 0.5 12.6667 1.54467 12.6667 2.83333M12.6667 2.83333H15C16.2887 2.83333 17.3333 3.878 17.3333 5.16667V8.66667M19.6667 13.3333H8M8 13.3333L11.5 9.83333M8 13.3333L11.5 16.8333" stroke="#111827" stroke-linecap="round" stroke-linejoin="round"/>
</svg>
