<svg width="208" height="208" viewBox="0 0 208 208" fill="none" xmlns="http://www.w3.org/2000/svg">
<circle cx="104" cy="104" r="103" fill="white" stroke="#C1E3F7" stroke-width="2"/>
<path d="M52.0863 56.1771L51.7443 146.895L24.0682 146.806L24.028 158.999C24.0194 162.667 25.4675 166.188 28.054 168.789C30.6405 171.39 34.1538 172.857 37.8218 172.869L51.6598 172.913L131.63 173.171C133.447 173.176 135.248 172.824 136.929 172.134C138.61 171.444 140.139 170.43 141.428 169.149C142.717 167.868 143.741 166.346 144.442 164.669C145.143 162.992 145.506 161.194 145.512 159.377L145.939 42.6288L65.9686 42.3713C64.1504 42.3655 62.3488 42.718 60.6669 43.4088C58.9849 44.0996 57.4557 45.1151 56.1664 46.3973C54.8772 47.6794 53.8532 49.2031 53.1531 50.8812C52.4531 52.5593 52.0905 54.3589 52.0863 56.1771Z" fill="#E4E4E4"/>
<path d="M24.0818 146.79L51.7577 146.877L51.7194 159.069C51.7079 162.739 50.2389 166.254 47.6356 168.841C45.0323 171.428 41.508 172.875 37.838 172.864C34.1679 172.852 30.6528 171.383 28.0658 168.78C25.4788 166.177 24.032 162.652 24.0435 158.982L24.0818 146.79Z" fill="#C0C0C0"/>
<path d="M140.746 150.56L146.423 146.043L172.377 178.66L166.7 183.177L140.746 150.56Z" fill="#C0C0C0"/>
<path d="M152.288 165.059L152.361 165.151L156.195 169.98C158.244 166.298 156.743 159.872 156.417 158.608L151.991 153.067C151.991 153.067 155.218 161.167 152.288 165.059Z" fill="#E4E4E4"/>
<path d="M75.8754 99.3128H35.4477C34.781 99.3128 34.2405 99.8533 34.2405 100.52V130.136C34.2405 130.802 34.781 131.343 35.4477 131.343H75.8754C76.542 131.343 77.0825 130.802 77.0825 130.136V100.52C77.0825 99.8533 76.542 99.3128 75.8754 99.3128Z" stroke="#C0C0C0" stroke-miterlimit="10"/>
<path d="M73.952 101.361H37.3631C36.6964 101.361 36.1559 101.901 36.1559 102.568V128.083C36.1559 128.75 36.6964 129.291 37.3631 129.291H73.952C74.6187 129.291 75.1591 128.75 75.1591 128.083V102.568C75.1591 101.901 74.6187 101.361 73.952 101.361Z" fill="#C0C0C0"/>
<path d="M71.4008 103.345H62.0735C61.4068 103.345 60.8664 103.885 60.8664 104.552V125.927C60.8664 126.593 61.4068 127.134 62.0735 127.134H71.4008C72.0675 127.134 72.608 126.593 72.608 125.927V104.552C72.608 103.885 72.0675 103.345 71.4008 103.345Z" fill="#C1E3F7"/>
<path d="M57.3133 118.993H40.6747C40.008 118.993 39.4675 119.534 39.4675 120.201V125.931C39.4675 126.597 40.008 127.138 40.6747 127.138H57.3133C57.98 127.138 58.5204 126.597 58.5204 125.931V120.201C58.5204 119.534 57.98 118.993 57.3133 118.993Z" fill="white"/>
<path d="M58.1181 103.345H39.8699C39.6477 103.345 39.4675 103.525 39.4675 103.747V105.876C39.4675 106.098 39.6477 106.278 39.8699 106.278H58.1181C58.3403 106.278 58.5204 106.098 58.5204 105.876V103.747C58.5204 103.525 58.3403 103.345 58.1181 103.345Z" fill="white"/>
<path d="M45.9057 108.894H41.2903C40.477 108.894 39.8176 109.553 39.8176 110.366V114.982C39.8176 115.795 40.477 116.454 41.2903 116.454H45.9057C46.7191 116.454 47.3784 115.795 47.3784 114.982V110.366C47.3784 109.553 46.7191 108.894 45.9057 108.894Z" fill="white"/>
<path d="M56.4321 108.894H51.8168C51.0034 108.894 50.344 109.553 50.344 110.366V114.982C50.344 115.795 51.0034 116.454 51.8168 116.454H56.4321C57.2455 116.454 57.9048 115.795 57.9048 114.982V110.366C57.9048 109.553 57.2455 108.894 56.4321 108.894Z" fill="white"/>
<path d="M166.786 29H126.359C125.692 29 125.151 29.5405 125.151 30.2072V59.8227C125.151 60.4894 125.692 61.0299 126.359 61.0299H166.786C167.453 61.0299 167.993 60.4894 167.993 59.8227V30.2072C167.993 29.5405 167.453 29 166.786 29Z" stroke="#C0C0C0" stroke-miterlimit="10"/>
<path d="M164.867 31.0522H128.278C127.611 31.0522 127.071 31.5926 127.071 32.2593V57.7746C127.071 58.4413 127.611 58.9817 128.278 58.9817H164.867C165.534 58.9817 166.074 58.4413 166.074 57.7746V32.2593C166.074 31.5926 165.534 31.0522 164.867 31.0522Z" fill="#C0C0C0"/>
<path d="M162.316 33.0359H152.988C152.322 33.0359 151.781 33.5764 151.781 34.2431V55.6178C151.781 56.2845 152.322 56.825 152.988 56.825H162.316C162.982 56.825 163.523 56.2845 163.523 55.6178V34.2431C163.523 33.5764 162.982 33.0359 162.316 33.0359Z" fill="white"/>
<path d="M148.228 48.6807H131.59C130.923 48.6807 130.382 49.2211 130.382 49.8878V55.6178C130.382 56.2845 130.923 56.825 131.59 56.825H148.228C148.895 56.825 149.435 56.2845 149.435 55.6178V49.8878C149.435 49.2211 148.895 48.6807 148.228 48.6807Z" fill="#C1E3F7"/>
<path d="M149.033 33.0359H130.785C130.563 33.0359 130.382 33.2161 130.382 33.4383V35.5669C130.382 35.7892 130.563 35.9693 130.785 35.9693H149.033C149.255 35.9693 149.435 35.7892 149.435 35.5669V33.4383C149.435 33.2161 149.255 33.0359 149.033 33.0359Z" fill="white"/>
<path d="M136.821 38.5808H132.205C131.392 38.5808 130.733 39.2402 130.733 40.0535V44.6689C130.733 45.4823 131.392 46.1416 132.205 46.1416H136.821C137.634 46.1416 138.293 45.4823 138.293 44.6689V40.0535C138.293 39.2402 137.634 38.5808 136.821 38.5808Z" fill="white"/>
<path d="M147.343 38.5808H142.728C141.914 38.5808 141.255 39.2402 141.255 40.0535V44.6689C141.255 45.4823 141.914 46.1416 142.728 46.1416H147.343C148.156 46.1416 148.816 45.4823 148.816 44.6689V40.0535C148.816 39.2402 148.156 38.5808 147.343 38.5808Z" fill="white"/>
<path d="M120.532 136.461L146.232 68.6511L173.913 68.7436L173.949 56.5473C173.955 54.7301 173.602 52.9295 172.912 51.2483C172.222 49.5672 171.208 48.0384 169.927 46.7494C168.646 45.4603 167.124 44.4361 165.447 43.7353C163.771 43.0345 161.972 42.6708 160.155 42.665L146.317 42.6207L66.3469 42.3632C64.528 42.3574 62.7257 42.7102 61.0433 43.4015C59.3608 44.0929 57.8312 45.1091 56.5418 46.3921C55.2525 47.6751 54.2287 49.1997 53.5291 50.8787C52.8295 52.5577 52.4677 54.3582 52.4646 56.1771L52.0381 172.925L120.532 136.461Z" fill="#E4E4E4"/>
<path d="M173.906 68.7613L146.242 68.6743L146.281 56.4821C146.292 52.8121 147.761 49.2969 150.364 46.7099C152.968 44.123 156.492 42.6761 160.162 42.6876C163.832 42.6992 167.347 44.1682 169.934 46.7714C172.521 49.3747 173.968 52.899 173.957 56.5691L173.918 68.7613L173.906 68.7613Z" fill="#C0C0C0"/>
<path d="M139.959 143.74C139.307 144.258 138.624 144.736 137.915 145.173L141.637 149.852L145.536 146.746L141.814 142.07C141.228 142.662 140.609 143.22 139.959 143.74Z" fill="white"/>
<path d="M122.874 146.81C136.626 146.81 147.774 135.662 147.774 121.911C147.774 108.159 136.626 97.0112 122.874 97.0112C109.122 97.0112 97.9744 108.159 97.9744 121.911C97.9744 135.662 109.122 146.81 122.874 146.81Z" fill="#489EE0"/>
<path d="M95.7122 141.656L70.435 140.857C68.8801 140.808 67.5798 142.029 67.5307 143.583L66.937 162.37C66.8879 163.924 68.1085 165.225 69.6634 165.274L94.9407 166.073C96.4955 166.122 97.7958 164.901 97.8449 163.346L98.4386 144.56C98.4877 143.005 97.2671 141.705 95.7122 141.656Z" fill="white"/>
<path d="M90.8856 64.5977L65.6083 63.7989C64.0534 63.7497 62.7531 64.9703 62.704 66.5252L62.1103 85.3112C62.0612 86.8661 63.2818 88.1664 64.8367 88.2155L90.114 89.0143C91.6688 89.0634 92.9691 87.8428 93.0182 86.288L93.6119 67.5019C93.661 65.9471 92.4404 64.6468 90.8856 64.5977Z" fill="white"/>
<path d="M94.208 116.672L60.1863 115.328M94.1034 126.224L60.1783 125.408M96.8275 134.723L66.3308 134.678M98.9038 66.6552L136.096 68.1239M98.759 76.3125L135.734 77.7772M105.06 85.4587L136.165 86.5975" stroke="white" stroke-width="2" stroke-linecap="round" stroke-linejoin="round"/>
<path d="M122.729 150.701C138.73 150.701 151.701 137.73 151.701 121.73C151.701 105.729 138.73 92.758 122.729 92.758C106.728 92.758 93.7573 105.729 93.7573 121.73C93.7573 137.73 106.728 150.701 122.729 150.701Z" fill="#C1E3F7"/>
<path d="M122.874 146.81C136.626 146.81 147.774 135.662 147.774 121.911C147.774 108.159 136.626 97.0112 122.874 97.0112C109.122 97.0112 97.9744 108.159 97.9744 121.911C97.9744 135.662 109.122 146.81 122.874 146.81Z" fill="#C0C0C0"/>
<path d="M98.1594 118.849L121.28 119.171L121.345 114.342L99.2539 114.036C98.7329 115.601 98.3663 117.213 98.1594 118.849ZM98.8435 128.47L122.25 128.792L122.319 123.963L98.0266 123.625C98.1392 125.263 98.4128 126.885 98.8435 128.47ZM101.865 135.278C102.371 136.076 102.923 136.843 103.519 137.576L121.86 137.833L122.021 133.005L100.441 132.711C100.864 133.594 101.34 134.452 101.865 135.278Z" fill="white"/>
</svg>
