<svg width="25" height="24" viewBox="0 0 25 24" fill="none" xmlns="http://www.w3.org/2000/svg">
<path d="M22.125 12C22.125 6.48 17.645 2 12.125 2C6.605 2 2.125 6.48 2.125 12C2.125 17.52 6.605 22 12.125 22" stroke="#B4B4C3" stroke-width="1.5" stroke-linecap="round" stroke-linejoin="round"/>
<path d="M8.12498 3H9.12498C7.17498 8.84 7.17498 15.16 9.12498 21H8.12498" stroke="#B4B4C3" stroke-width="1.5" stroke-linecap="round" stroke-linejoin="round"/>
<path d="M15.125 3C16.095 5.92 16.585 8.96 16.585 12" stroke="#B4B4C3" stroke-width="1.5" stroke-linecap="round" stroke-linejoin="round"/>
<path d="M3.125 16V15C6.045 15.97 9.085 16.46 12.125 16.46" stroke="#B4B4C3" stroke-width="1.5" stroke-linecap="round" stroke-linejoin="round"/>
<path d="M3.125 9.0001C8.965 7.0501 15.285 7.0501 21.125 9.0001" stroke="#B4B4C3" stroke-width="1.5" stroke-linecap="round" stroke-linejoin="round"/>
<path d="M18.325 21.4C20.0923 21.4 21.525 19.9673 21.525 18.2C21.525 16.4327 20.0923 15 18.325 15C16.5577 15 15.125 16.4327 15.125 18.2C15.125 19.9673 16.5577 21.4 18.325 21.4Z" stroke="#B4B4C3" stroke-width="1.5" stroke-linecap="round" stroke-linejoin="round"/>
<path d="M22.125 22L21.125 21" stroke="#B4B4C3" stroke-width="1.5" stroke-linecap="round" stroke-linejoin="round"/>
</svg>
