<svg width="24" height="24" viewBox="0 0 24 24" fill="none" xmlns="http://www.w3.org/2000/svg">
<path d="M12 13.6699C10.1453 13.6699 8.63 12.163 8.63 10.2999C8.63 8.43861 10.1436 6.93994 12 6.93994C13.8547 6.93994 15.37 8.44692 15.37 10.3099C15.37 12.1713 13.8564 13.6699 12 13.6699ZM12 7.43994C10.4252 7.43994 9.13 8.72243 9.13 10.3099C9.13 11.8961 10.4139 13.1799 12 13.1799C13.5861 13.1799 14.87 11.8961 14.87 10.3099C14.87 8.72243 13.5748 7.43994 12 7.43994Z" fill="#292D32" stroke="#B4B4C3"/>
<path d="M3.37752 8.44124L3.37765 8.44068C4.42369 3.83243 8.44321 1.75 12.0001 1.75H12.0001H12.0001H12.0001H12.0001H12.0001H12.0001H12.0001H12.0001H12.0001H12.0001H12.0001H12.0002H12.0002H12.0002H12.0002H12.0002H12.0002H12.0002H12.0002H12.0002H12.0002H12.0002H12.0002H12.0003H12.0003H12.0003H12.0003H12.0003H12.0003H12.0003H12.0003H12.0003H12.0003H12.0004H12.0004H12.0004H12.0004H12.0004H12.0004H12.0004H12.0004H12.0005H12.0005H12.0005H12.0005H12.0005H12.0005H12.0005H12.0005H12.0005H12.0005H12.0005H12.0006H12.0006H12.0006H12.0006H12.0006H12.0006H12.0006H12.0006H12.0006H12.0006H12.0006H12.0007H12.0007H12.0007H12.0007H12.0007H12.0007H12.0007H12.0007H12.0007H12.0007H12.0007H12.0008H12.0008H12.0008H12.0008H12.0008H12.0008H12.0008H12.0008H12.0008H12.0008H12.0009H12.0009H12.0009H12.0009H12.0009H12.0009H12.0009H12.0009H12.0009H12.001H12.001H12.001H12.001H12.001H12.001H12.001H12.001H12.0011H12.0011H12.0011H12.0011H12.0011H12.0011H12.0011H12.0012H12.0012H12.0012H12.0012H12.0012H12.0012H12.0012H12.0012H12.0013H12.0013H12.0013H12.0013H12.0013H12.0013H12.0013H12.0014H12.0014H12.0014H12.0014H12.0014H12.0014H12.0015H12.0015H12.0015H12.0015H12.0015H12.0015H12.0016H12.0016H12.0016H12.0016H12.0016H12.0016H12.0017H12.0017H12.0017H12.0017H12.0017H12.0017H12.0018H12.0018H12.0018H12.0018H12.0018H12.0019H12.0019H12.0019H12.0019H12.0019H12.0019H12.002H12.002H12.002H12.002H12.002H12.0021H12.0021H12.0021H12.0021H12.0021H12.0022H12.0022H12.0022H12.0022H12.0023H12.0023H12.0023H12.0023H12.0023H12.0024H12.0024H12.0024H12.0024H12.0024H12.0025H12.0025H12.0025H12.0025H12.0026H12.0026H12.0026H12.0026H12.0027H12.0027H12.0027H12.0027H12.0028H12.0028H12.0028H12.0028H12.0029H12.0029H12.0029H12.0029H12.003H12.003H12.003H12.003H12.0031H12.0031H12.0031H12.0031H12.0032H12.0032H12.0032H12.0032H12.0033H12.0033H12.0033H12.0034H12.0034H12.0034H12.0034H12.0035H12.0035H12.0035H12.0036H12.0036H12.0036H12.0036H12.0037H12.0037H12.0037H12.0038H12.0038H12.0038H12.0039H12.0039H12.0039H12.004H12.004H12.004H12.004H12.0041H12.0041H12.0041H12.0042H12.0042H12.0042H12.0043H12.0043H12.0043H12.0044H12.0044H12.0044H12.0045H12.0045H12.0045H12.0046H12.0046H12.0046H12.0047H12.0047H12.0048H12.0048H12.0048H12.0049H12.0049H12.0049H12.005H12.005H12.005H12.0051H12.0051H12.0052H12.0052H12.0052H12.0053H12.0053H12.0053H12.0054H12.0054H12.0055H12.0055H12.0055H12.0056H12.0056H12.0057H12.0057H12.0057H12.0058H12.0058H12.0059H12.0059H12.0059H12.006H12.006H12.0061H12.0061H12.0061H12.0062H12.0062H12.0063H12.0063H12.0064H12.0064H12.0064H12.0065H12.0065H12.0066H12.0066H12.0067H12.0067H12.0068H12.0068H12.0068H12.0069H12.0069H12.007H12.007H12.0071H12.0071H12.0072H12.0072H12.0073H12.0073H12.0074H12.0074H12.0074H12.0075H12.0075H12.0076H12.0076H12.0077H12.0077H12.0078H12.0078H12.0079H12.0079H12.008H12.008H12.0081H12.0081H12.0082H12.0082H12.0083H12.0083H12.0084H12.0084H12.0085H12.0086H12.0086H12.0087H12.0087H12.0088H12.0088H12.0089H12.0089H12.009H12.009H12.0091H12.0091H12.0092H12.0093H12.0093H12.0094H12.0094H12.0095H12.0095H12.0096H12.0097H12.0097H12.0098H12.0098H12.0099H12.0099H12.01H12.0101C15.5666 1.75 19.5862 3.83212 20.6324 8.45047C21.7912 13.5701 18.7043 17.9174 15.784 20.7291C14.7191 21.7479 13.3539 22.26 12.0001 22.26C10.6462 22.26 9.28096 21.7479 8.21611 20.7291C5.29597 17.9176 2.20928 13.5606 3.37752 8.44124ZM20.1479 8.55022L20.1474 8.54822C19.0785 3.88795 15.0588 2.25 12.0001 2.25C8.941 2.25 4.93108 3.88835 3.87259 8.54874C2.72981 13.5337 5.86984 17.7675 8.57328 20.3602C10.497 22.2168 13.5137 22.2166 15.4373 20.3597C18.1306 17.7672 21.2695 13.5341 20.1479 8.55022Z" fill="#292D32" stroke="#B4B4C3"/>
</svg>
